<?xml version="1.0" encoding="iso-8859-1"?>
<!-- Generator: Adobe Illustrator 19.0.0, SVG Export Plug-In . SVG Version: 6.00 Build 0)  -->
<svg version="1.1" id="Layer_1" xmlns="http://www.w3.org/2000/svg" xmlns:xlink="http://www.w3.org/1999/xlink" x="0px" y="0px"
	 viewBox="0 0 512.001 512.001" style="enable-background:new 0 0 512.001 512.001;" xml:space="preserve">
<g>
	<g>
		<g>
			<circle cx="217.323" cy="198.301" r="7.213"/>
			<circle cx="233.672" cy="327.959" r="7.213"/>
			<circle cx="61.279" cy="267.12" r="7.213"/>
			<circle cx="107.553" cy="308.435" r="7.213"/>
			<path d="M170.188,214.197c-11.919,0-21.616,9.697-21.616,21.616c0,4.142,3.358,7.5,7.5,7.5c4.142,0,7.5-3.357,7.5-7.5
				c0-3.648,2.968-6.617,6.616-6.617c3.648,0,6.616,2.969,6.616,6.617c0,4.142,3.358,7.5,7.5,7.5c4.142,0,7.5-3.357,7.5-7.5
				C191.804,223.894,182.107,214.197,170.188,214.197z"/>
			<path d="M182.056,256.332H158.32c-4.142,0-7.5,3.357-7.5,7.5s3.358,7.5,7.5,7.5h23.736c4.142,0,7.5-3.357,7.5-7.5
				S186.198,256.332,182.056,256.332z"/>
			<circle cx="404.813" cy="293.665" r="7.213"/>
			<circle cx="387.038" cy="194.001" r="7.213"/>
			<path d="M436.398,247.805c-4.142,0-7.5,3.357-7.5,7.5v27.228c0,4.142,3.357,7.5,7.5,7.5c4.142,0,7.5-3.357,7.5-7.5v-27.228
				C443.898,251.162,440.541,247.805,436.398,247.805z"/>
			<path d="M495.645,225.04l-62.362-47.336c-29.521-22.409-62.977-35.92-96.752-39.072c-33.84-3.156-68.414,4.04-99.977,20.815
				c-8.534,4.535-17.767,5.781-26.703,3.607c-39.928-9.72-81.708-1.115-117.647,24.226l-79.355,55.953
				C1.79,251.032-2.93,268.219,1.87,283.213c4.808,15.021,13.748,26.748,25.175,33.024l53.639,29.458
				c28.896,15.87,59.33,25.192,90.455,27.706c5.709,0.462,11.411,0.691,17.109,0.691c25.398,0,50.634-4.578,75.229-13.667
				c18.341-6.779,37.157-8.308,55.926-4.551c32.057,6.422,64.225,4.146,95.609-6.765c31.211-10.85,60.074-29.702,85.79-56.033
				c5.17-5.295,8.836-12.801,10.322-21.137C514.428,253.423,508.207,234.575,495.645,225.04z M496.356,269.305
				c-0.964,5.405-3.197,10.126-6.287,13.291c-24.077,24.653-50.987,42.265-79.983,52.346c-11.347,3.945-22.803,6.642-34.316,8.126
				v-27.42c0-4.142-3.357-7.5-7.5-7.5c-4.142,0-7.5,3.357-7.5,7.5v28.672c-12.785,0.46-25.615-0.587-38.423-3.153
				c-21.529-4.314-43.086-2.568-64.07,5.187h-0.001c-28.051,10.367-56.961,14.433-85.93,12.095c-2.479-0.2-4.953-0.465-7.423-0.758
				v-54.034c0-4.142-3.358-7.5-7.5-7.5c-4.142,0-7.5,3.357-7.5,7.5v51.679c-21.217-4.171-41.998-11.794-62.02-22.791l-53.639-29.458
				c-7.929-4.354-14.53-13.266-18.11-24.449c-2.745-8.572-0.3-19.173,5.337-23.149l73.979-52.163v42.26c0,4.142,3.358,7.5,7.5,7.5
				c4.142,0,7.5-3.357,7.5-7.5v-52.293c21.151-12.621,44.088-19.127,67.047-19.127c9.635,0,19.274,1.145,28.785,3.459
				c12.564,3.058,25.459,1.352,37.289-4.936c18.522-9.843,37.698-15.997,57.009-18.515v36.032c0,4.142,3.357,7.5,7.5,7.5
				s7.5-3.357,7.5-7.5v-37.231c37.451-1.237,74.908,11.088,108.615,36.674l4.683,3.555v35.558c0,4.142,3.357,7.5,7.5,7.5
				c4.142,0,7.5-3.357,7.5-7.5v-24.173l42.679,32.396C494.511,243.009,498.624,256.6,496.356,269.305z"/>
			<path d="M341.804,214.197c-11.919,0-21.616,9.697-21.616,21.616c0,4.142,3.357,7.5,7.5,7.5s7.5-3.357,7.5-7.5
				c0-3.648,2.969-6.617,6.617-6.617s6.616,2.969,6.616,6.617c0,4.142,3.357,7.5,7.5,7.5c4.142,0,7.5-3.357,7.5-7.5
				C363.42,223.894,353.723,214.197,341.804,214.197z"/>
			<path d="M353.672,256.332h-23.737c-4.142,0-7.5,3.357-7.5,7.5s3.357,7.5,7.5,7.5h23.737c4.142,0,7.5-3.357,7.5-7.5
				S357.814,256.332,353.672,256.332z"/>
			<path d="M283.71,228.798c-4.142,0-7.5,3.357-7.5,7.5c0,3.506-2.852,6.358-6.357,6.358s-6.358-2.852-6.358-6.358
				c0-4.142-3.357-7.5-7.5-7.5c-4.142,0-7.5,3.357-7.5,7.5c0,3.506-2.852,6.358-6.358,6.358c-3.506,0-6.358-2.852-6.358-6.358
				c0-4.142-3.358-7.5-7.5-7.5c-4.142,0-7.5,3.357-7.5,7.5c0,4.29,1.283,8.281,3.469,11.631v18.111
				c0,17.505,14.241,31.746,31.746,31.746s31.746-14.241,31.746-31.746v-18.111c2.186-3.35,3.469-7.341,3.469-11.631
				C291.21,232.155,287.853,228.798,283.71,228.798z M255.996,282.786c-4.379,0-8.358-1.703-11.345-4.464
				c3.513-1.235,7.37-1.904,11.345-1.904c3.975,0,7.832,0.669,11.345,1.904C264.353,281.083,260.374,282.786,255.996,282.786z
				 M272.742,264.323c-5.23-1.894-10.933-2.904-16.746-2.904c-5.814,0-11.516,1.01-16.747,2.904v-6.887
				c0.947,0.129,1.907,0.219,2.889,0.219c5.284,0,10.125-1.929,13.857-5.119c3.733,3.19,8.574,5.119,13.858,5.119
				c0.982,0,1.941-0.09,2.889-0.219V264.323z"/>
		</g>
	</g>
</g>
<g>
</g>
<g>
</g>
<g>
</g>
<g>
</g>
<g>
</g>
<g>
</g>
<g>
</g>
<g>
</g>
<g>
</g>
<g>
</g>
<g>
</g>
<g>
</g>
<g>
</g>
<g>
</g>
<g>
</g>
</svg>
