<?xml version="1.0" encoding="iso-8859-1"?>
<!-- Generator: Adobe Illustrator 18.0.0, SVG Export Plug-In . SVG Version: 6.00 Build 0)  -->
<!DOCTYPE svg PUBLIC "-//W3C//DTD SVG 1.1//EN" "http://www.w3.org/Graphics/SVG/1.1/DTD/svg11.dtd">
<svg version="1.1" id="Capa_1" xmlns="http://www.w3.org/2000/svg" xmlns:xlink="http://www.w3.org/1999/xlink" x="0px" y="0px"
	 viewBox="0 0 50.587 50.587" style="enable-background:new 0 0 50.587 50.587;" xml:space="preserve">
<g>
	<path d="M30.684,0.832c-1.691-1.355-4.155-0.803-7.276-0.107c-2.135,0.477-4.554,1.017-7.102,1.017s-4.967-0.54-7.102-1.017
		C6.083,0.029,3.618-0.522,1.929,0.832C0.822,1.718,0.307,3.238,0.307,5.613c0,1.077,0.109,2.116,0.315,3.111
		c-0.207,0.733-0.315,1.593-0.315,2.634c0,1.077,0.109,2.116,0.315,3.11c-0.207,0.733-0.315,1.593-0.315,2.635
		c0,1.077,0.109,2.116,0.315,3.11c-0.207,0.733-0.315,1.593-0.315,2.634c0,0.982,0.099,1.93,0.271,2.844
		c-0.179,0.701-0.271,1.514-0.271,2.488c0,1.077,0.109,2.116,0.315,3.11c-0.207,0.733-0.315,1.593-0.315,2.635
		c0,8.531,6.729,14.724,16,14.724s16-6.192,16-14.724c0-1.042-0.107-1.902-0.315-2.635c0.206-0.995,0.315-2.034,0.315-3.11
		c0-0.974-0.092-1.786-0.271-2.488c0.172-0.915,0.271-1.862,0.271-2.844c0-1.041-0.107-1.901-0.315-2.634
		c0.206-0.995,0.315-2.034,0.315-3.11c0-1.042-0.107-1.902-0.315-2.635c0.206-0.995,0.315-2.034,0.315-3.11
		c0-1.041-0.107-1.901-0.315-2.634c0.206-0.995,0.315-2.034,0.315-3.111C32.307,3.238,31.791,1.718,30.684,0.832z M17.586,40.856
		c-0.42,0.03-0.846,0.047-1.279,0.047s-0.859-0.017-1.279-0.047c-3.741-0.274-6.998-1.746-9.278-4.061
		c-0.01-0.01-0.02-0.019-0.029-0.029c-0.207-0.211-0.4-0.433-0.59-0.658c-0.06-0.071-0.121-0.14-0.179-0.212
		c-0.139-0.172-0.268-0.352-0.397-0.532c-0.096-0.135-0.194-0.269-0.285-0.408c-0.086-0.131-0.165-0.267-0.246-0.402
		c-0.116-0.195-0.231-0.39-0.336-0.592c-0.051-0.098-0.098-0.199-0.146-0.299c-0.117-0.24-0.229-0.483-0.329-0.732
		c-0.034-0.083-0.064-0.168-0.096-0.252c-0.099-0.261-0.191-0.527-0.272-0.797c-0.03-0.1-0.056-0.202-0.084-0.304
		c-0.082-0.301-0.16-0.604-0.22-0.915c0.025,0.038,0.053,0.074,0.078,0.113c1.532,2.341,3.759,4.187,6.488,5.361
		c0.006,0.003,0.012,0.005,0.019,0.008c0.56,0.24,1.14,0.452,1.74,0.633c0.062,0.019,0.123,0.04,0.185,0.059
		c0.251,0.073,0.505,0.138,0.763,0.2c0.229,0.056,0.461,0.105,0.695,0.153c0.218,0.044,0.434,0.089,0.657,0.125
		c0.403,0.067,0.813,0.117,1.227,0.158c0.142,0.014,0.285,0.025,0.429,0.036c0.489,0.037,0.983,0.062,1.486,0.062
		s0.997-0.026,1.486-0.062c0.144-0.011,0.287-0.022,0.429-0.036c0.414-0.041,0.825-0.091,1.227-0.158
		c0.222-0.036,0.439-0.082,0.657-0.125c0.234-0.047,0.466-0.097,0.695-0.153c0.257-0.062,0.512-0.128,0.763-0.2
		c0.062-0.018,0.122-0.04,0.184-0.059c0.601-0.181,1.18-0.394,1.741-0.634c0.006-0.003,0.012-0.005,0.018-0.008
		c2.729-1.173,4.956-3.019,6.488-5.361c0.025-0.038,0.053-0.074,0.078-0.113c-0.06,0.311-0.138,0.614-0.22,0.915
		c-0.027,0.102-0.054,0.204-0.084,0.304c-0.081,0.27-0.173,0.535-0.272,0.796c-0.032,0.085-0.063,0.171-0.096,0.255
		c-0.101,0.249-0.213,0.491-0.329,0.731c-0.049,0.1-0.095,0.201-0.147,0.299c-0.105,0.202-0.22,0.397-0.336,0.592
		c-0.081,0.135-0.16,0.271-0.246,0.402c-0.091,0.139-0.189,0.273-0.285,0.408c-0.129,0.18-0.258,0.36-0.397,0.532
		c-0.058,0.072-0.119,0.141-0.179,0.211c-0.19,0.225-0.384,0.448-0.591,0.659c-0.009,0.009-0.018,0.018-0.027,0.027
		C24.585,39.109,21.327,40.582,17.586,40.856z M11.887,19.819c0.132,0.032,0.266,0.059,0.399,0.088
		c0.351,0.075,0.704,0.143,1.066,0.198c0.333,0.052,0.669,0.096,1.009,0.13c0.157,0.015,0.315,0.029,0.474,0.041
		c0.485,0.036,0.974,0.062,1.471,0.062s0.987-0.025,1.471-0.062c0.159-0.012,0.317-0.025,0.474-0.041
		c0.34-0.034,0.676-0.078,1.009-0.13c0.362-0.055,0.715-0.123,1.066-0.198c0.133-0.029,0.268-0.056,0.399-0.088
		c4.109-0.974,7.416-3.303,9.428-6.527c0.005-0.008,0.011-0.016,0.017-0.025c-0.056,0.385-0.13,0.762-0.219,1.132
		c-0.016,0.068-0.038,0.133-0.055,0.201c-0.081,0.313-0.169,0.623-0.273,0.925c-0.019,0.054-0.041,0.105-0.06,0.159
		c-0.108,0.301-0.226,0.596-0.357,0.885c-0.037,0.082-0.08,0.161-0.119,0.243c-0.118,0.245-0.242,0.486-0.375,0.722
		c-0.074,0.129-0.154,0.254-0.232,0.38c-0.107,0.173-0.216,0.344-0.332,0.511c-0.123,0.176-0.252,0.347-0.385,0.516
		c-0.08,0.103-0.16,0.206-0.244,0.307c-0.178,0.213-0.364,0.42-0.557,0.621c-0.044,0.046-0.088,0.093-0.133,0.138
		c-0.234,0.236-0.477,0.465-0.732,0.683c-0.006,0.006-0.013,0.011-0.019,0.017c-1.661,1.418-3.733,2.444-6.069,2.971
		c-0.018,0.004-0.037,0.007-0.055,0.011c-0.366,0.081-0.739,0.151-1.117,0.208c-0.122,0.018-0.249,0.028-0.372,0.043
		c-0.285,0.036-0.569,0.073-0.859,0.094c-0.427,0.031-0.859,0.049-1.299,0.049s-0.873-0.018-1.299-0.049
		c-0.291-0.021-0.575-0.058-0.859-0.094c-0.124-0.015-0.25-0.025-0.372-0.043c-0.379-0.057-0.751-0.126-1.117-0.208
		c-0.018-0.004-0.037-0.007-0.055-0.011c-2.336-0.527-4.408-1.553-6.069-2.971c-0.007-0.006-0.013-0.011-0.019-0.017
		c-0.254-0.218-0.497-0.447-0.732-0.683c-0.045-0.046-0.089-0.092-0.133-0.138c-0.193-0.201-0.379-0.408-0.557-0.621
		c-0.083-0.1-0.164-0.204-0.244-0.307c-0.133-0.169-0.262-0.34-0.385-0.516c-0.115-0.167-0.224-0.338-0.331-0.51
		c-0.079-0.126-0.159-0.251-0.233-0.381c-0.134-0.235-0.257-0.477-0.375-0.722c-0.039-0.081-0.082-0.161-0.119-0.243
		c-0.131-0.288-0.248-0.584-0.357-0.885c-0.019-0.053-0.042-0.105-0.06-0.159c-0.104-0.302-0.192-0.612-0.273-0.925
		c-0.017-0.068-0.039-0.133-0.055-0.201c-0.089-0.37-0.163-0.747-0.219-1.132c0.005,0.008,0.011,0.016,0.017,0.025
		C4.471,16.516,7.778,18.845,11.887,19.819z M30.171,19.011c-0.056,0.386-0.131,0.764-0.22,1.135
		c-0.015,0.063-0.035,0.122-0.051,0.184c-0.082,0.319-0.172,0.635-0.278,0.943c-0.016,0.047-0.036,0.093-0.053,0.14
		c-0.11,0.307-0.231,0.61-0.365,0.904c-0.034,0.075-0.073,0.148-0.109,0.222c-0.121,0.253-0.249,0.501-0.387,0.744
		c-0.07,0.121-0.145,0.239-0.218,0.357c-0.112,0.181-0.226,0.361-0.348,0.536c-0.117,0.168-0.241,0.331-0.367,0.492
		c-0.086,0.112-0.173,0.223-0.263,0.332c-0.172,0.205-0.351,0.405-0.538,0.599c-0.051,0.053-0.102,0.107-0.154,0.16
		c-0.228,0.229-0.464,0.451-0.71,0.663c-0.014,0.012-0.029,0.025-0.043,0.037c-1.658,1.413-3.725,2.435-6.056,2.962
		c-0.023,0.005-0.046,0.009-0.069,0.014c-0.362,0.08-0.73,0.149-1.104,0.205c-0.127,0.019-0.258,0.029-0.386,0.044
		c-0.281,0.035-0.561,0.072-0.847,0.093c-0.427,0.031-0.859,0.049-1.299,0.049s-0.873-0.018-1.299-0.049
		c-0.286-0.021-0.567-0.057-0.847-0.093c-0.128-0.016-0.259-0.026-0.386-0.044c-0.374-0.056-0.742-0.125-1.104-0.205
		c-0.023-0.005-0.046-0.009-0.069-0.014c-2.33-0.526-4.397-1.549-6.056-2.962c-0.014-0.012-0.029-0.025-0.043-0.037
		c-0.247-0.212-0.483-0.434-0.71-0.663c-0.052-0.053-0.103-0.106-0.154-0.16C5.453,25.405,5.274,25.205,5.101,25
		c-0.09-0.109-0.177-0.22-0.263-0.332c-0.126-0.161-0.25-0.324-0.367-0.492c-0.121-0.175-0.236-0.354-0.348-0.536
		c-0.074-0.118-0.149-0.236-0.218-0.357c-0.138-0.242-0.266-0.491-0.387-0.744c-0.036-0.074-0.075-0.147-0.109-0.222
		c-0.134-0.295-0.254-0.597-0.365-0.904c-0.017-0.047-0.037-0.093-0.053-0.14c-0.106-0.307-0.196-0.623-0.278-0.943
		c-0.016-0.062-0.036-0.122-0.051-0.184c-0.089-0.371-0.164-0.749-0.22-1.135c0.002,0.003,0.004,0.005,0.006,0.008
		c2.011,3.234,5.323,5.569,9.44,6.544c0.13,0.031,0.263,0.058,0.395,0.087c0.352,0.075,0.706,0.144,1.068,0.199
		c0.333,0.052,0.669,0.096,1.009,0.13c0.157,0.015,0.315,0.029,0.474,0.041c0.485,0.036,0.974,0.062,1.471,0.062
		s0.987-0.025,1.471-0.062c0.159-0.012,0.317-0.025,0.474-0.041c0.34-0.034,0.676-0.078,1.009-0.13
		c0.362-0.055,0.717-0.124,1.068-0.199c0.132-0.029,0.265-0.055,0.395-0.087c4.117-0.975,7.429-3.311,9.44-6.544
		C30.167,19.017,30.169,19.014,30.171,19.011z M30.171,24.756c-0.05,0.345-0.12,0.682-0.197,1.015
		c-0.03,0.133-0.066,0.263-0.1,0.394c-0.068,0.257-0.141,0.512-0.225,0.761c-0.033,0.1-0.07,0.197-0.106,0.296
		c-0.097,0.264-0.2,0.524-0.314,0.778c-0.041,0.091-0.084,0.181-0.127,0.271c-0.118,0.246-0.243,0.487-0.376,0.723
		c-0.057,0.1-0.116,0.199-0.175,0.298c-0.128,0.211-0.262,0.418-0.403,0.62c-0.083,0.119-0.167,0.236-0.254,0.351
		c-0.126,0.168-0.258,0.332-0.393,0.494c-0.117,0.139-0.236,0.277-0.359,0.411c-0.114,0.125-0.232,0.245-0.351,0.365
		c-0.157,0.158-0.317,0.313-0.483,0.463c-0.094,0.085-0.192,0.167-0.289,0.249c-0.201,0.169-0.404,0.336-0.617,0.494
		c-0.071,0.053-0.145,0.104-0.218,0.156c-0.243,0.173-0.491,0.341-0.748,0.499c-0.05,0.031-0.102,0.059-0.152,0.09
		c-0.281,0.168-0.569,0.329-0.865,0.477c-0.036,0.018-0.072,0.034-0.108,0.052c-0.312,0.153-0.63,0.297-0.957,0.429
		c-0.032,0.013-0.066,0.024-0.098,0.037c-0.331,0.13-0.667,0.252-1.012,0.359c-0.045,0.014-0.092,0.025-0.138,0.039
		c-0.334,0.101-0.673,0.194-1.019,0.274c-0.083,0.019-0.169,0.032-0.252,0.05c-0.314,0.067-0.63,0.13-0.954,0.179
		c-0.163,0.024-0.332,0.038-0.498,0.058c-0.252,0.03-0.503,0.065-0.76,0.084c-0.432,0.032-0.87,0.05-1.316,0.05
		s-0.884-0.018-1.316-0.05c-0.257-0.019-0.508-0.054-0.76-0.084c-0.166-0.02-0.335-0.033-0.498-0.058
		c-0.323-0.049-0.639-0.112-0.954-0.179c-0.083-0.018-0.17-0.031-0.252-0.05c-0.346-0.079-0.685-0.173-1.019-0.274
		c-0.045-0.014-0.093-0.025-0.138-0.039c-0.345-0.108-0.682-0.229-1.012-0.359c-0.032-0.013-0.066-0.024-0.098-0.037
		c-0.327-0.132-0.645-0.276-0.957-0.429c-0.036-0.017-0.073-0.034-0.108-0.052c-0.297-0.149-0.584-0.31-0.865-0.477
		c-0.051-0.03-0.102-0.059-0.152-0.09c-0.257-0.158-0.505-0.326-0.748-0.499c-0.073-0.052-0.147-0.103-0.218-0.156
		c-0.212-0.158-0.416-0.324-0.617-0.494c-0.097-0.082-0.195-0.164-0.289-0.249c-0.166-0.149-0.326-0.305-0.483-0.463
		c-0.119-0.12-0.237-0.241-0.351-0.365c-0.123-0.134-0.242-0.272-0.359-0.411c-0.135-0.161-0.266-0.326-0.393-0.494
		c-0.087-0.115-0.171-0.233-0.254-0.351c-0.14-0.202-0.275-0.409-0.403-0.62c-0.06-0.098-0.118-0.198-0.175-0.298
		c-0.133-0.236-0.259-0.477-0.376-0.723c-0.043-0.09-0.086-0.18-0.127-0.271c-0.114-0.254-0.217-0.514-0.314-0.778
		c-0.036-0.098-0.073-0.196-0.106-0.296c-0.084-0.249-0.156-0.504-0.225-0.761c-0.034-0.131-0.07-0.261-0.1-0.394
		c-0.077-0.333-0.147-0.67-0.197-1.015c0.003,0.004,0.006,0.008,0.009,0.013c2.011,3.231,5.322,5.564,9.437,6.539
		c0.131,0.031,0.264,0.058,0.397,0.087c0.352,0.075,0.706,0.144,1.068,0.199c0.332,0.052,0.667,0.095,1.007,0.13
		c0.158,0.015,0.317,0.029,0.477,0.041c0.484,0.036,0.973,0.062,1.47,0.062s0.986-0.025,1.47-0.062
		c0.16-0.012,0.318-0.025,0.477-0.041c0.34-0.034,0.675-0.078,1.007-0.13c0.362-0.055,0.717-0.124,1.068-0.199
		c0.132-0.029,0.266-0.056,0.397-0.087c4.115-0.975,7.426-3.308,9.437-6.539C30.165,24.765,30.168,24.761,30.171,24.756z
		 M3.18,2.392c0.347-0.278,0.859-0.388,1.493-0.388c1.084,0,2.522,0.321,4.097,0.672c2.235,0.499,4.769,1.064,7.537,1.064
		s5.302-0.565,7.537-1.064c2.495-0.558,4.649-1.04,5.59-0.284c0.579,0.464,0.873,1.548,0.873,3.221c0,2.275-0.564,4.356-1.578,6.148
		c-0.055,0.096-0.116,0.189-0.174,0.284c-0.137,0.226-0.279,0.449-0.43,0.665c-0.107,0.151-0.219,0.299-0.332,0.445
		c-0.109,0.141-0.22,0.279-0.335,0.416c-0.157,0.184-0.317,0.366-0.485,0.541c-0.072,0.076-0.147,0.148-0.221,0.222
		c-0.214,0.212-0.432,0.421-0.662,0.618c-0.003,0.003-0.007,0.006-0.011,0.009c-1.358,1.16-2.992,2.053-4.82,2.63
		c-0.064,0.02-0.128,0.041-0.193,0.061c-0.295,0.089-0.597,0.167-0.902,0.24c-0.138,0.032-0.276,0.062-0.416,0.09
		c-0.259,0.054-0.519,0.104-0.784,0.146c-0.224,0.035-0.453,0.061-0.682,0.086c-0.202,0.023-0.402,0.05-0.607,0.067
		c-0.45,0.035-0.905,0.057-1.37,0.057s-0.92-0.022-1.37-0.057c-0.205-0.016-0.405-0.043-0.607-0.067
		c-0.229-0.026-0.457-0.052-0.682-0.086c-0.265-0.042-0.525-0.092-0.784-0.146c-0.14-0.029-0.278-0.058-0.416-0.09
		c-0.305-0.072-0.606-0.151-0.902-0.24c-0.065-0.019-0.129-0.04-0.193-0.061c-1.827-0.577-3.462-1.471-4.82-2.63
		c-0.003-0.003-0.007-0.006-0.011-0.009c-0.23-0.197-0.448-0.406-0.662-0.618c-0.074-0.074-0.149-0.147-0.221-0.222
		c-0.168-0.175-0.328-0.356-0.485-0.541c-0.115-0.136-0.227-0.275-0.335-0.416c-0.114-0.146-0.226-0.294-0.332-0.445
		c-0.151-0.216-0.294-0.439-0.43-0.665C4,11.949,3.939,11.857,3.884,11.761C2.87,9.968,2.307,7.888,2.307,5.613
		C2.307,3.94,2.6,2.856,3.18,2.392z M30.171,35.834c-0.925,6.369-6.471,10.814-13.864,10.814S3.367,42.203,2.442,35.834
		c0.005,0.008,0.011,0.016,0.017,0.025c2.011,3.224,5.318,5.552,9.425,6.526c0.134,0.032,0.271,0.06,0.407,0.089
		c0.348,0.074,0.699,0.142,1.057,0.197c0.334,0.052,0.671,0.096,1.013,0.13c0.157,0.015,0.315,0.029,0.473,0.04
		c0.485,0.036,0.974,0.062,1.472,0.062s0.987-0.025,1.472-0.062c0.159-0.012,0.316-0.025,0.473-0.04
		c0.341-0.034,0.679-0.078,1.013-0.13c0.359-0.054,0.709-0.123,1.057-0.197c0.136-0.029,0.273-0.057,0.407-0.089
		c4.108-0.974,7.414-3.303,9.425-6.526C30.159,35.85,30.165,35.842,30.171,35.834z"/>
	<path d="M10.807,12.004c1.93,0,3.5-1.57,3.5-3.5s-1.57-3.5-3.5-3.5s-3.5,1.57-3.5,3.5S8.877,12.004,10.807,12.004z M10.807,7.004
		c0.827,0,1.5,0.673,1.5,1.5s-0.673,1.5-1.5,1.5s-1.5-0.673-1.5-1.5S9.979,7.004,10.807,7.004z"/>
	<circle cx="20.807" cy="12.504" r="1.5"/>
	<circle cx="23.307" cy="7.004" r="1"/>
	<circle cx="15.307" cy="15.004" r="1"/>
	<circle cx="5.307" cy="5.004" r="1"/>
	<path d="M41.492,40.905l-2.104-1.403c-0.737-0.49-1.719-0.312-2.237,0.411c-0.814,1.14-1.026,1.899-0.705,2.54
		c0.097,0.192,0.276,0.551,2.489,2.617c0.307,0.286,0.703,0.439,1.111,0.439c0.134,0,0.271-0.018,0.404-0.052
		c0.542-0.138,0.971-0.536,1.147-1.066l0.536-1.61C42.368,42.084,42.104,41.313,41.492,40.905z M39.882,43.214
		c-0.828-0.784-1.291-1.259-1.505-1.492c0.042-0.085,0.105-0.202,0.204-0.355l1.568,1.046L39.882,43.214z"/>
	<path d="M49.194,45.71c-0.588-0.543-1.442-0.689-2.178-0.37l-2.104,0.911c-0.512,0.222-0.913,0.65-1.102,1.175
		c-0.188,0.525-0.15,1.111,0.104,1.607l0.232,0.453c0.256,0.499,0.711,0.872,1.25,1.024c0.18,0.051,0.364,0.076,0.549,0.076
		c0.367,0,0.732-0.1,1.052-0.294c2.678-1.625,2.888-1.899,3.024-2.078C50.806,47.205,49.594,46.081,49.194,45.71z M45.928,48.575
		l-0.22-0.487l2.104-0.911l0.024,0.002c0.051,0.047,0.097,0.091,0.138,0.132C47.604,47.555,46.978,47.951,45.928,48.575z"/>
	<path d="M46.736,38.004c0.733,0,1.392-0.407,1.72-1.063l0.848-1.696c0.34-0.68,0.256-1.471-0.22-2.063
		c-0.476-0.592-1.227-0.847-1.966-0.661l-1.708,0.427c-0.464,0.115-0.866,0.399-1.134,0.799l-0.846,1.27
		c-0.394,0.591-0.43,1.348-0.095,1.974s0.984,1.015,1.694,1.015H46.736z M45.894,34.887l1.545-0.386l-0.751,1.503h-1.516
		L45.894,34.887z"/>
</g>
<g>
</g>
<g>
</g>
<g>
</g>
<g>
</g>
<g>
</g>
<g>
</g>
<g>
</g>
<g>
</g>
<g>
</g>
<g>
</g>
<g>
</g>
<g>
</g>
<g>
</g>
<g>
</g>
<g>
</g>
</svg>
