<svg height="512pt" viewBox="-5 0 512 512.00867" width="512pt" xmlns="http://www.w3.org/2000/svg"><path d="m119.636719 443.699219c-18.816407 0-34.121094-15.304688-34.121094-34.121094 0-4.71875 3.820313-8.53125 8.53125-8.53125 4.707031 0 8.53125 3.8125 8.53125 8.53125 0 9.40625 7.648437 17.058594 17.058594 17.058594 4.710937 0 8.53125 3.8125 8.53125 8.53125 0 4.714843-3.8125 8.53125-8.53125 8.53125zm0 0"/><path d="m281.714844 418.105469c-18.820313 0-34.121094-15.300781-34.121094-34.121094 0-4.714844 3.820312-8.53125 8.527344-8.53125 4.710937 0 8.53125 3.816406 8.53125 8.53125 0 9.410156 7.652344 17.0625 17.0625 17.0625 4.707031 0 8.527344 3.8125 8.527344 8.53125 0 4.714844-3.8125 8.527344-8.527344 8.527344zm0 0"/><path d="m222 366.925781c-18.816406 0-34.121094-15.304687-34.121094-34.121093 0-4.71875 3.824219-8.53125 8.53125-8.53125 4.707032 0 8.53125 3.8125 8.53125 8.53125 0 9.40625 7.652344 17.058593 17.058594 17.058593 4.710938 0 8.53125 3.8125 8.53125 8.53125s-3.8125 8.53125-8.53125 8.53125zm0 0"/><path d="m298.773438 332.804688c-18.816407 0-34.121094-15.304688-34.121094-34.121094 0-4.71875 3.824218-8.53125 8.53125-8.53125 4.707031 0 8.53125 3.8125 8.53125 8.53125 0 9.40625 7.652344 17.058594 17.058594 17.058594 4.710937 0 8.53125 3.8125 8.53125 8.53125 0 4.714843-3.8125 8.53125-8.53125 8.53125zm0 0"/><path d="m145.226562 383.984375c-18.816406 0-34.121093-15.300781-34.121093-34.121094 0-4.714843 3.824219-8.53125 8.53125-8.53125 4.710937 0 8.53125 3.816407 8.53125 8.53125 0 9.410157 7.652343 17.0625 17.058593 17.0625 4.710938 0 8.53125 3.8125 8.53125 8.527344 0 4.71875-3.8125 8.53125-8.53125 8.53125zm0 0"/><path d="m204.941406 443.699219c-18.820312 0-34.121094-15.304688-34.121094-34.121094 0-4.71875 3.820313-8.53125 8.527344-8.53125 4.710938 0 8.53125 3.8125 8.53125 8.53125 0 9.40625 7.652344 17.058594 17.0625 17.058594 4.707032 0 8.53125 3.8125 8.53125 8.53125 0 4.714843-3.816406 8.53125-8.53125 8.53125zm0 0"/><path d="m168.847656 512.007812c-23.746094 0-49.917968-3.777343-79.082031-11.882812-9.972656-2.761719-24.371094-5.960938-34.234375-1.867188-17.316406 7.214844-34.71875 5.050782-45.421875-5.65625-9.71875-9.714843-12.472656-24.976562-7.390625-40.808593 4.105469-12.796875 5.015625-23.320313 2.6875-31.304688-21.84375-74.914062 23.535156-180.394531 118.417969-275.277343l15.613281-15.617188c67.535156-95.539062 127.46875-159.628906 282.011719-115.210938 7.480469 2.148438 16.949219 3.539063 30.53125-2.378906 14.585937-6.363281 30.929687-3.59375 41.609375 7.078125 9.894531 9.886719 11.902344 24.902344 5.953125 44.605469-4.511719 14.960938-5.507813 27.042969-4.527344 31.929688 15.609375 78-30.394531 184.492187-117.214844 271.316406l-15.5 15.5c-50.507812 77.4375-105.308593 129.574218-193.453125 129.574218zm-101.910156-32.730468c9.886719 0 19.738281 2.285156 27.398438 4.410156 128.144531 35.613281 192.273437-16.199219 254.179687-111.3125l1.117187-1.371094 16.128907-16.132812c82.890625-82.898438 127.070312-183.34375 112.550781-255.902344-1.800781-8.972656.042969-23.996094 4.921875-40.203125 3.984375-13.222656 3.421875-22.511719-1.679687-27.613281-5.691407-5.671875-14.597657-7.0625-22.726563-3.503906v.007812c-18.636719 8.121094-32.269531 5.929688-42.0625 3.128906-144.359375-41.480468-198.175781 16.328125-263.792969 109.257813l-.929687 1.109375-16.128907 16.140625c-90.480468 90.460937-134.207031 189.492187-114.113281 258.425781 3.292969 11.300781 2.347657 25.199219-2.820312 41.292969-3.097657 9.640625-1.902344 18.425781 3.199219 23.535156 5.722656 5.726563 15.992187 6.46875 26.800781 1.972656 5.648437-2.355469 11.804687-3.242187 17.957031-3.242187zm388.472656-459.445313h.082032zm0 0"/><path d="m121.222656 213.378906c-.460937 0-.929687-.035156-1.398437-.121094-4.648438-.765624-7.796875-5.152343-7.027344-9.800781 7.335937-44.339843 25.335937-71.902343 26.101563-73.046875 9.539062-13.519531 17.1875-23.976562 24.226562-33.128906 2.875-3.738281 8.238281-4.429688 11.960938-1.5625 3.734374 2.875 4.433593 8.230469 1.558593 11.96875-6.890625 8.957031-14.414062 19.234375-23.671875 32.347656-.015625.023438-16.640625 25.675782-23.339844 66.203125-.6875 4.179688-4.304687 7.140625-8.410156 7.140625zm0 0"/><path d="m339.941406 414.457031-7.035156-4.839843-6.691406-5.285157 6.707031 5.269531-6.652344-5.339843c18.339844-24.269531 32.558594-51.421875 42.34375-80.808594 1.089844-3.285156 2.175781-6.671875 3.222657-10.160156 1.355468-4.511719 6.125-7.035157 10.628906-5.714844 4.511718 1.355469 7.074218 6.117187 5.707031 10.628906-1.101563 3.660157-2.226563 7.21875-3.378906 10.648438-10.371094 31.132812-25.460938 59.933593-44.851563 85.601562zm0 0"/></svg>